<?xml version="1.0" standalone="no"?>
<!DOCTYPE svg PUBLIC "-//W3C//DTD SVG 20010904//EN"
 "http://www.w3.org/TR/2001/REC-SVG-20010904/DTD/svg10.dtd">
<svg version="1.0" xmlns="http://www.w3.org/2000/svg"
 width="1588.000000pt" height="1267.000000pt" viewBox="0 0 1588.000000 1267.000000"
 preserveAspectRatio="xMidYMid meet">
<metadata>
Created by potrace 1.16, written by Peter Selinger 2001-2019
</metadata>
<g transform="translate(0.000000,1267.000000) scale(0.100000,-0.100000)"
fill="#000000" stroke="none">
<path d="M0 6335 l0 -6335 7940 0 7940 0 0 6335 0 6335 -7940 0 -7940 0 0
-6335z m14548 13 l-3 -5243 -6600 0 -6600 0 -3 5230 c-1 2877 0 5236 3 5243 3
9 1334 12 6605 12 l6600 0 -2 -5242z"/>
<path d="M7890 8853 c-35 -54 -67 -101 -71 -104 -5 -3 -24 -34 -42 -70 -30
-60 -74 -132 -168 -272 -22 -32 -39 -63 -39 -68 0 -9 -53 -97 -114 -189 -37
-57 -44 -88 -24 -108 18 -18 6 -23 -79 -38 -431 -71 -453 -76 -453 -99 0 -8
23 -74 50 -147 28 -73 50 -138 50 -145 0 -14 128 -342 140 -358 4 -5 17 -41
30 -80 24 -73 49 -145 81 -230 l19 -49 -38 -41 c-21 -22 -77 -81 -124 -131
-48 -51 -96 -111 -109 -135 -12 -24 -32 -60 -45 -79 -39 -58 -83 -193 -96
-292 -9 -68 -12 -364 -12 -1093 l-1 -1000 1124 -3 1124 -2 -7 1057 c-4 582 -9
1072 -12 1088 -12 70 -74 239 -93 255 -6 5 -37 48 -77 108 -13 20 -66 80 -117
133 -126 132 -120 122 -102 165 8 20 15 43 15 51 0 15 78 221 104 278 29 60
86 213 86 228 0 16 28 95 55 152 21 45 95 257 95 270 0 7 -19 17 -42 23 -68
17 -435 82 -463 82 -24 0 -25 3 -25 53 0 36 -7 63 -23 89 -71 119 -141 229
-148 234 -5 3 -17 24 -28 48 -10 24 -53 93 -95 154 -42 60 -79 118 -83 128
-12 29 -134 208 -151 222 -9 6 -19 12 -23 12 -4 0 -35 -44 -69 -97z m101 -265
c31 -36 120 -174 183 -283 32 -55 73 -125 92 -155 19 -30 34 -62 34 -71 0 -9
-16 -31 -36 -48 -34 -31 -134 -171 -134 -190 0 -19 -150 -241 -163 -241 -4 0
-20 21 -35 46 -15 25 -57 92 -93 148 -36 55 -73 117 -83 136 -9 19 -39 60 -66
90 -27 30 -50 62 -50 70 0 8 27 56 60 107 33 50 60 97 60 103 0 6 22 44 49 83
67 98 124 188 133 210 10 23 26 22 49 -5z m-376 -774 c35 -47 114 -178 139
-230 14 -29 55 -96 91 -150 36 -55 73 -116 83 -137 14 -30 22 -37 42 -35 19 2
36 22 77 88 28 47 59 94 67 105 9 10 16 26 16 35 0 8 30 60 66 115 36 55 81
128 101 162 19 35 39 65 44 68 16 10 436 -41 452 -55 7 -6 -21 -99 -43 -145
-21 -45 -50 -131 -50 -152 0 -12 -4 -24 -9 -28 -5 -3 -19 -36 -32 -73 -12 -37
-32 -89 -45 -117 -36 -81 -104 -256 -104 -269 0 -7 -25 -75 -56 -152 -108
-267 -116 -289 -129 -334 -20 -68 -54 -161 -63 -174 -5 -6 -21 -45 -37 -86
-15 -41 -39 -99 -52 -129 -13 -29 -30 -77 -37 -105 -13 -47 -67 -188 -101
-261 -8 -16 -25 -56 -39 -87 -14 -32 -29 -58 -34 -58 -5 0 -16 26 -24 58 -9
31 -46 129 -83 217 -37 88 -79 198 -95 245 -25 75 -89 238 -164 415 -14 33
-26 70 -26 82 0 12 -9 42 -20 65 -42 93 -163 406 -176 457 -8 30 -30 91 -49
135 -19 44 -35 83 -35 88 0 4 -9 27 -19 51 -39 86 -111 306 -111 339 0 19 49
32 170 48 47 6 114 14 150 19 107 14 114 13 135 -15z m-249 -1165 c8 -17 16
-50 17 -73 2 -34 -5 -50 -34 -86 -54 -68 -109 -167 -135 -244 l-24 -70 0 -857
0 -857 438 -7 c240 -4 587 -5 770 -3 293 5 336 8 350 22 16 15 17 82 17 789
-1 813 -2 848 -48 992 -22 72 -105 218 -151 268 -14 15 -26 33 -26 40 0 23 49
117 61 117 17 0 99 -69 99 -83 0 -7 19 -33 43 -59 23 -26 67 -96 97 -155 l55
-108 0 -985 0 -985 -915 -3 c-503 -1 -926 0 -939 3 l-23 6 5 897 c5 952 9
1034 53 1131 22 49 84 157 109 190 33 44 140 151 151 151 8 0 21 -14 30 -31z"/>
</g>
</svg>
